<svg width="386" height="332" viewBox="0 0 386 332" fill="none" xmlns="http://www.w3.org/2000/svg">
<path d="M-167.889 39.6177L-132.179 19.6428C-123.803 14.958 -114.489 12.1985 -104.914 11.5649V11.5649C-92.3592 10.7342 -80.3208 6.25462 -70.2772 -1.32349L-23.6076 -36.5366C-17.826 -40.8989 -10.1775 -41.9027 -3.46602 -39.1798V-39.1798C3.12536 -36.5057 10.6302 -37.4232 16.3832 -41.6065L48.9712 -65.3029C59.359 -72.8564 71.1971 -78.1794 83.7412 -80.9373L94.0549 -83.2047C112.815 -87.3293 130.558 -95.1752 146.232 -106.278L170.527 -123.488C197.831 -142.829 228.272 -157.308 260.505 -166.286L276.374 -170.706" stroke="white" stroke-opacity="0.12" stroke-width="4"/>
<path d="M-161.614 54.27L-125.904 34.2952C-117.528 29.6104 -108.214 26.8508 -98.6387 26.2172V26.2172C-86.0843 25.3865 -74.0459 20.907 -64.0023 13.3289L-17.3327 -21.8842C-11.5511 -26.2466 -3.90257 -27.2503 2.80888 -24.5275V-24.5275C9.40027 -21.8533 16.9051 -22.7708 22.6581 -26.9542L55.2461 -50.6505C65.6339 -58.204 77.472 -63.527 90.0162 -66.2849L100.33 -68.5524C119.09 -72.6769 136.832 -80.5228 152.507 -91.6258L176.802 -108.835C204.106 -128.176 234.547 -142.656 266.78 -151.634L282.649 -156.054" stroke="white" stroke-opacity="0.48" stroke-width="4"/>
<path d="M-155.338 68.9209L-119.628 48.946C-111.252 44.2612 -101.938 41.5017 -92.3628 40.8681V40.8681C-79.8084 40.0374 -67.77 35.5578 -57.7264 27.9797L-11.0568 -7.23336C-5.27519 -11.5957 2.37331 -12.5995 9.08476 -9.8766V-9.8766C15.6761 -7.20246 23.181 -8.11996 28.934 -12.3033L61.522 -35.9996C71.9098 -43.5532 83.7479 -48.8762 96.292 -51.634L106.606 -53.9015C125.366 -58.026 143.108 -65.8719 158.783 -76.9749L183.078 -94.1843C210.382 -113.526 240.822 -128.005 273.056 -136.983L288.925 -141.403" stroke="white" stroke-opacity="0.12" stroke-width="4"/>
<path d="M-149.063 83.5732L-113.353 63.5984C-104.978 58.9136 -95.6635 56.1541 -86.0879 55.5204V55.5204C-73.5335 54.6897 -61.4951 50.2102 -51.4515 42.6321L-4.78193 7.41898C0.99971 3.05662 8.64822 2.05289 15.3597 4.77574V4.77574C21.951 7.44989 29.4559 6.53238 35.2089 2.34907L67.7969 -21.3473C78.1847 -28.9008 90.0228 -34.2238 102.567 -36.9817L112.881 -39.2492C131.641 -43.3737 149.383 -51.2196 165.058 -62.3226L189.352 -79.532C216.657 -98.8732 247.097 -113.352 279.331 -122.331L295.199 -126.75" stroke="white" stroke-opacity="0.48" stroke-width="4"/>
<path d="M-142.789 98.2256L-107.078 78.2507C-98.7026 73.5659 -89.3886 70.8064 -79.813 70.1728V70.1728C-67.2586 69.3421 -55.2202 64.8625 -45.1766 57.2844L1.49298 22.0713C7.27461 17.709 14.9231 16.7052 21.6346 19.4281V19.4281C28.2259 22.1022 35.7308 21.1847 41.4838 17.0014L74.0718 -6.69496C84.4596 -14.2485 96.2977 -19.5715 108.842 -22.3293L119.155 -24.5968C137.916 -28.7213 155.658 -36.5673 171.332 -47.6702L195.627 -64.8796C222.932 -84.2209 253.372 -98.7 285.606 -107.678L301.474 -112.098" stroke="white" stroke-opacity="0.12" stroke-width="4"/>
<path d="M-136.513 112.877L-100.803 92.9026C-92.4273 88.2178 -83.1132 85.4583 -73.5376 84.8246V84.8246C-60.9832 83.9939 -48.9448 79.5144 -38.9012 71.9363L7.76837 36.7232C13.55 32.3608 21.1985 31.3571 27.91 34.0799V34.0799C34.5013 36.7541 42.0062 35.8366 47.7592 31.6533L80.3472 7.95689C90.735 0.403382 102.573 -4.91961 115.117 -7.67749L125.431 -9.94497C144.191 -14.0695 161.933 -21.9154 177.608 -33.0184L201.903 -50.2278C229.207 -69.569 259.648 -84.0481 291.881 -93.0263L307.75 -97.4463" stroke="white" stroke-opacity="0.48" stroke-width="4"/>
<path d="M-130.238 127.529L-94.5272 107.554C-86.1519 102.869 -76.8378 100.11 -67.2622 99.476V99.476C-54.7078 98.6453 -42.6695 94.1658 -32.6258 86.5876L14.0438 51.3745C19.8254 47.0122 27.4739 46.0085 34.1853 48.7313V48.7313C40.7767 51.4055 48.2816 50.4879 54.0346 46.3046L86.6226 22.6083C97.0104 15.0547 108.848 9.73176 121.393 6.97388L131.706 4.7064C150.467 0.581881 168.209 -7.26403 183.883 -18.367L208.178 -35.5764C235.483 -54.9177 265.923 -69.3967 298.157 -78.375L314.025 -82.7949" stroke="white" stroke-opacity="0.12" stroke-width="4"/>
<path d="M-123.963 142.181L-88.2523 122.206C-79.877 117.521 -70.5629 114.761 -60.9873 114.128V114.128C-48.4329 113.297 -36.3946 108.818 -26.3509 101.239L20.3187 66.0264C26.1003 61.664 33.7488 60.6603 40.4602 63.3832V63.3832C47.0516 66.0573 54.5565 65.1398 60.3095 60.9565L92.8975 37.2601C103.285 29.7066 115.123 24.3836 127.668 21.6257L137.981 19.3583C156.741 15.2337 174.484 7.38782 190.158 -3.71516L214.453 -20.9245C241.757 -40.2658 272.198 -54.7449 304.432 -63.7231L320.3 -68.1431" stroke="white" stroke-opacity="0.48" stroke-width="4"/>
<path d="M-117.688 156.833L-81.9769 136.858C-73.6016 132.173 -64.2875 129.414 -54.7119 128.78V128.78C-42.1575 127.949 -30.1192 123.47 -20.0755 115.892L26.5941 80.6787C32.3757 76.3164 40.0242 75.3127 46.7356 78.0355V78.0355C53.327 80.7097 60.8318 79.7921 66.5849 75.6088L99.1728 51.9125C109.561 44.3589 121.399 39.036 133.943 36.2781L144.257 34.0106C163.017 29.8861 180.759 22.0402 196.434 10.9372L220.728 -6.2722C248.033 -25.6135 278.473 -40.0925 310.707 -49.0708L326.575 -53.4907" stroke="white" stroke-opacity="0.12" stroke-width="4"/>
</svg>
