<svg width="196" height="48" viewBox="0 0 196 48" fill="none" xmlns="http://www.w3.org/2000/svg">
<g clip-path="url(#clip0_329_75)">
<path d="M38.1252 0C36.3023 0.00214275 34.5549 0.724617 33.2661 2.00894C31.9773 3.29327 31.2522 5.03457 31.25 6.85086C31.2478 8.33517 31.7345 9.77918 32.6352 10.9614C32.6352 10.9614 32.8224 11.2074 32.8532 11.2429L38.1252 17.4386L43.3993 11.2398C43.4269 11.2068 43.6152 10.9614 43.6152 10.9614L43.6158 10.9595C44.5158 9.77782 45.0022 8.33447 45 6.85086C44.9978 5.03457 44.2727 3.29327 42.9839 2.00894C41.695 0.724617 39.9477 0.00214275 38.1252 0ZM38.1252 9.34209C37.6305 9.34209 37.1472 9.19598 36.7362 8.92225C36.3248 8.64852 36.0044 8.25944 35.8153 7.80423C35.6261 7.34902 35.5766 6.84811 35.673 6.36486C35.7696 5.88161 36.0076 5.4377 36.3572 5.08929C36.707 4.74091 37.1523 4.50363 37.6371 4.4075C38.1223 4.31138 38.6249 4.36074 39.0816 4.54929C39.5385 4.73782 39.929 5.05715 40.2037 5.46682C40.4785 5.87649 40.6249 6.35817 40.6249 6.85086C40.6242 7.51133 40.3606 8.14449 39.8919 8.61151C39.4232 9.07853 38.7878 9.34127 38.1252 9.34209Z" fill="#00BD5E"/>
<path d="M6.24999 47.9561C9.70177 47.9561 12.5 45.1677 12.5 41.7281C12.5 38.2884 9.70177 35.5 6.24999 35.5C2.79822 35.5 0 38.2884 0 41.7281C0 45.1677 2.79822 47.9561 6.24999 47.9561Z" fill="#00BD5E"/>
<path fill-rule="evenodd" clip-rule="evenodd" d="M14.5214 10.7045C11.0436 10.7045 8.23621 13.512 8.23621 16.9606V30.7813C8.23621 31.8778 7.34737 32.7666 6.25092 32.7666C5.15447 32.7666 4.26562 31.8778 4.26562 30.7813V16.9606C4.26562 11.306 8.86386 6.73389 14.5214 6.73389C20.1239 6.73389 24.6988 11.2207 24.7762 16.8198L25.052 36.7916C25.0937 39.8029 27.5572 42.234 30.596 42.234C33.6647 42.234 36.1407 39.7568 36.1407 36.7158V22.157C36.1407 21.0606 37.0296 20.1717 38.126 20.1717C39.2225 20.1717 40.1113 21.0606 40.1113 22.157V36.7158C40.1113 41.963 35.8443 46.2046 30.596 46.2046C25.3985 46.2046 21.1536 42.0419 21.0818 36.8465L20.8059 16.8746C20.7588 13.4598 17.9653 10.7045 14.5214 10.7045Z" fill="#001209"/>
</g>
<path d="M182.395 38.5063C179.744 38.5063 177.395 37.9158 175.348 36.7348C173.327 35.5275 171.739 33.861 170.585 31.7351C169.43 29.583 168.853 27.0898 168.853 24.2553C168.853 21.4471 169.43 18.9801 170.585 16.8543C171.739 14.7022 173.327 13.0226 175.348 11.8153C177.395 10.608 179.744 10.0044 182.395 10.0044C185.098 10.0044 187.473 10.608 189.52 11.8153C191.567 13.0226 193.155 14.7022 194.284 16.8543C195.412 18.9801 195.977 21.4471 195.977 24.2553C195.977 27.0898 195.412 29.583 194.284 31.7351C193.155 33.861 191.567 35.5275 189.52 36.7348C187.473 37.9158 185.098 38.5063 182.395 38.5063ZM182.434 34.2546C184.193 34.2546 185.728 33.861 187.04 33.0736C188.352 32.26 189.363 31.1052 190.071 29.6093C190.78 28.1133 191.134 26.3287 191.134 24.2553C191.134 22.182 190.78 20.3974 190.071 18.9014C189.363 17.4054 188.352 16.2638 187.04 15.4764C185.728 14.6629 184.193 14.2561 182.434 14.2561C180.676 14.2561 179.141 14.6629 177.828 15.4764C176.516 16.2638 175.492 17.4054 174.758 18.9014C174.049 20.3974 173.695 22.182 173.695 24.2553C173.695 26.3287 174.049 28.1133 174.758 29.6093C175.492 31.1052 176.516 32.26 177.828 33.0736C179.141 33.861 180.676 34.2546 182.434 34.2546Z" fill="#00BD5E"/>
<path d="M151.433 38.5063C148.834 38.5063 146.551 37.9158 144.583 36.7348C142.641 35.5537 141.132 33.9134 140.055 31.8139C138.979 29.688 138.441 27.2079 138.441 24.3734C138.441 21.5652 138.993 19.0851 140.095 16.933C141.197 14.7547 142.772 13.0619 144.819 11.8547C146.892 10.6211 149.346 10.0044 152.181 10.0044C155.382 10.0044 158.033 10.7786 160.133 12.3271C162.259 13.8493 163.636 15.9751 164.266 18.7046H158.952C158.558 17.3398 157.784 16.2769 156.629 15.5158C155.474 14.7547 153.978 14.3742 152.141 14.3742C150.278 14.3742 148.677 14.781 147.338 15.5945C146.026 16.3819 145.016 17.5367 144.307 19.0589C143.625 20.5548 143.284 22.3395 143.284 24.4128C143.284 26.4862 143.625 28.2708 144.307 29.7668C145.016 31.2627 146.013 32.4044 147.299 33.1917C148.585 33.9528 150.094 34.3334 151.826 34.3334C154.398 34.3334 156.34 33.6116 157.653 32.1682C158.965 30.7247 159.739 28.8482 159.975 26.5386H152.85V22.9562H164.739V38.0339H160.408L160.015 34.2546C159.411 35.1469 158.716 35.9212 157.928 36.5773C157.141 37.2072 156.209 37.6927 155.133 38.0339C154.083 38.3488 152.85 38.5063 151.433 38.5063Z" fill="#00BD5E"/>
<path d="M129.084 38.0339V18.1928H133.808V38.0339H129.084ZM131.446 15.0435C130.58 15.0435 129.858 14.781 129.281 14.2561C128.73 13.705 128.454 13.0357 128.454 12.2484C128.454 11.4348 128.73 10.7787 129.281 10.28C129.858 9.75512 130.58 9.49268 131.446 9.49268C132.312 9.49268 133.021 9.75512 133.572 10.28C134.149 10.7787 134.438 11.4348 134.438 12.2484C134.438 13.0357 134.149 13.705 133.572 14.2561C133.021 14.781 132.312 15.0435 131.446 15.0435Z" fill="#001209"/>
<path d="M112.522 38.0345L105.199 18.1934H110.159L115.395 33.5466L120.631 18.1934H125.513L118.19 38.0345H112.522Z" fill="#001209"/>
<path d="M91.7143 38.5071C90.0871 38.5071 88.7355 38.2315 87.6594 37.6804C86.5834 37.1292 85.7829 36.3944 85.258 35.4758C84.7332 34.5573 84.4707 33.56 84.4707 32.4839C84.4707 31.2242 84.7856 30.135 85.4155 29.2164C86.0716 28.2979 87.0296 27.5893 88.2893 27.0906C89.5491 26.5657 91.0975 26.3033 92.9347 26.3033H97.9343C97.9343 25.2535 97.79 24.3874 97.5013 23.705C97.2126 22.9964 96.7664 22.4715 96.1628 22.1303C95.5591 21.7891 94.7849 21.6186 93.8401 21.6186C92.7641 21.6186 91.8455 21.8679 91.0844 22.3665C90.3233 22.8389 89.8509 23.5738 89.6672 24.5711H85.0218C85.1793 23.1539 85.6517 21.9466 86.4391 20.9493C87.2264 19.9258 88.2631 19.1384 89.5491 18.5873C90.8613 18.0099 92.2917 17.7212 93.8401 17.7212C95.7035 17.7212 97.2913 18.0493 98.6035 18.7054C99.9158 19.3353 100.913 20.2538 101.595 21.4611C102.304 22.6421 102.658 24.0724 102.658 25.7521V38.0347H98.6429L98.1705 34.8459C97.9081 35.3708 97.5669 35.8564 97.147 36.3025C96.7533 36.7487 96.294 37.1424 95.7691 37.4836C95.2442 37.7985 94.6406 38.0478 93.9582 38.2315C93.3021 38.4152 92.5541 38.5071 91.7143 38.5071ZM92.7772 34.7672C93.5383 34.7672 94.2075 34.636 94.7849 34.3735C95.3886 34.0848 95.9003 33.6912 96.3202 33.1925C96.7664 32.6676 97.1076 32.0902 97.3438 31.4604C97.58 30.8305 97.7375 30.1612 97.8162 29.4526V29.3739H93.4464C92.5279 29.3739 91.7668 29.492 91.1631 29.7282C90.5595 29.9382 90.1265 30.2531 89.864 30.673C89.6016 31.0929 89.4703 31.5785 89.4703 32.1296C89.4703 32.6807 89.6016 33.1532 89.864 33.5468C90.1265 33.9405 90.507 34.2423 91.0057 34.4523C91.5043 34.6622 92.0948 34.7672 92.7772 34.7672Z" fill="#001209"/>
<path d="M57 38.0341V10.4771H61.7241L74.9908 30.3969V10.4771H79.7149V38.0341H74.9908L61.7241 18.1537V38.0341H57Z" fill="#001209"/>
<defs>
<clipPath id="clip0_329_75">
<rect width="45" height="48" fill="white"/>
</clipPath>
</defs>
</svg>
